<?xml version="1.0" encoding="UTF-8" standalone="no"?>
<svg xmlns="http://www.w3.org/2000/svg" xmlns:xlink="http://www.w3.org/1999/xlink" xmlns:serif="http://www.serif.com/" width="100%" height="100%" viewBox="0 0 1171 275" version="1.1" xml:space="preserve" style="fill-rule:evenodd;clip-rule:evenodd;stroke-linejoin:round;stroke-miterlimit:2;">
    <g transform="matrix(1,0,0,1,121.471,61.288)">
        <path d="M0,152.117C7.752,144.365 11.445,134.764 11.445,126.273C11.445,115.194 6.647,104.858 0,98.211C-5.168,93.043 -13.66,87.505 -26.214,87.505C-37.289,87.505 -46.52,91.565 -53.166,98.581C-59.074,104.858 -64.242,115.933 -64.242,125.164C-64.242,135.134 -59.443,146.21 -51.688,153.223C-45.414,158.764 -35.814,163.193 -26.214,163.193C-17.722,163.193 -8.122,160.239 0,152.117M-62.397,-61.288L-62.397,58.705C-51.688,47.259 -35.814,37.293 -13.293,37.293C7.016,37.293 28.798,43.939 45.045,59.444C60.183,73.843 71.997,96.736 71.997,124.795C71.997,151.008 62.028,174.268 45.414,190.515C29.907,205.653 11.076,213.405 -12.554,213.405C-23.999,213.405 -45.781,211.191 -62.397,189.776L-62.397,207.868L-121.471,207.868L-121.471,-61.288L-62.397,-61.288Z" style="fill:rgb(47,41,43);fill-rule:nonzero;"></path>
    </g>
    <g transform="matrix(1,0,0,1,293.533,213.774)">
        <path d="M0,-54.275C-7.386,-47.259 -11.445,-36.922 -11.445,-27.322C-11.445,-17.352 -6.647,-7.755 0,-1.109C7.013,5.908 16.613,9.967 26.583,9.967C36.181,9.967 45.781,5.908 52.797,-1.109C60.18,-8.122 64.242,-17.722 64.242,-27.322C64.242,-36.183 60.18,-46.889 52.797,-54.275C46.15,-60.552 35.814,-64.981 26.583,-64.981C16.983,-64.981 6.644,-60.552 0,-54.275M100.056,33.597C78.271,55.012 52.797,60.919 26.214,60.919C2.215,60.919 -24.369,56.12 -47.259,33.597C-65.351,15.874 -72.737,-5.171 -72.737,-27.322C-72.737,-56.859 -59.443,-76.06 -47.259,-87.874C-33.599,-101.165 -9.6,-115.194 26.214,-115.194C62.767,-115.194 86.396,-100.795 100.056,-87.874C112.24,-76.06 125.53,-56.859 125.53,-27.322C125.53,-5.171 118.148,15.874 100.056,33.597" style="fill:rgb(47,41,43);fill-rule:nonzero;"></path>
    </g>
    <g transform="matrix(1,0,0,1,574.51,61.288)">
        <path d="M0,152.117C7.752,144.365 11.445,134.764 11.445,126.273C11.445,115.194 6.647,104.858 0,98.211C-5.168,93.043 -13.66,87.505 -26.214,87.505C-37.289,87.505 -46.52,91.565 -53.167,98.581C-59.074,104.858 -64.242,115.933 -64.242,125.164C-64.242,135.134 -59.443,146.21 -51.691,153.223C-45.414,158.764 -35.814,163.193 -26.214,163.193C-17.722,163.193 -8.122,160.239 0,152.117M-62.397,-61.288L-62.397,58.705C-51.691,47.259 -35.814,37.293 -13.29,37.293C7.016,37.293 28.798,43.939 45.045,59.444C60.183,73.843 71.997,96.736 71.997,124.795C71.997,151.008 62.028,174.268 45.414,190.515C29.907,205.653 11.076,213.405 -12.554,213.405C-23.999,213.405 -45.784,211.191 -62.397,189.776L-62.397,207.868L-121.471,207.868L-121.471,-61.288L-62.397,-61.288Z" style="fill:rgb(47,41,43);fill-rule:nonzero;"></path>
    </g>
    <g transform="matrix(1,0,0,1,0,-4.8013)">
        <path d="M739.556,273.957L680.482,273.957L680.482,108.92L739.556,108.92L739.556,273.957ZM710.019,7.016C728.481,7.016 743.249,21.784 743.249,40.245C743.249,58.707 728.481,73.475 710.019,73.475C691.558,73.475 676.789,58.707 676.789,40.245C676.789,21.784 691.558,7.016 710.019,7.016" style="fill:rgb(47,41,43);fill-rule:nonzero;"></path>
    </g>
    <g transform="matrix(1,0,0,1,779.802,265.462)">
        <path d="M0,-161.344L59.074,-161.344L59.074,-140.668C75.321,-162.083 97.102,-165.037 111.501,-165.037C128.487,-165.037 146.576,-160.974 160.239,-147.315C174.268,-133.285 175.746,-119.253 175.746,-101.161L175.746,3.693L116.672,3.693L116.672,-79.749C116.672,-89.347 117.039,-103.748 109.287,-111.87C103.749,-117.778 96.366,-118.884 90.459,-118.884C81.228,-118.884 73.473,-115.563 68.674,-111.131C62.767,-105.593 59.074,-94.887 59.074,-84.918L59.074,3.693L0,3.693L0,-161.344Z" style="fill:rgb(47,41,43);fill-rule:nonzero;"></path>
    </g>
    <g transform="matrix(1,0,0,1,1116.53,210.452)">
        <path d="M0,-46.89C-1.475,-53.167 -5.168,-60.183 -9.6,-64.612C-17.353,-72.367 -28.059,-73.473 -33.966,-73.473C-43.936,-73.473 -51.688,-70.889 -57.965,-64.612C-62.028,-60.183 -65.717,-54.276 -66.826,-46.89L0,-46.89ZM54.275,-12.924L-68.674,-12.924C-68.674,-4.063 -65.351,7.752 -58.335,14.768C-54.642,18.461 -47.259,22.89 -33.966,22.89C-32.491,22.89 -22.151,22.52 -14.768,18.461C-11.076,16.243 -7.013,12.553 -4.429,7.382L52.061,7.382C49.474,16.613 44.305,29.536 32.121,41.351C19.937,53.166 0.739,64.242 -35.075,64.242C-56.859,64.242 -83.073,59.443 -103.379,39.137C-114.085,28.428 -127.748,8.121 -127.748,-23.26C-127.748,-50.952 -117.409,-73.104 -103.01,-87.136C-89.347,-100.426 -67.935,-111.132 -35.444,-111.132C-16.244,-111.132 8.491,-107.073 28.062,-88.611C51.322,-66.46 54.275,-37.659 54.275,-19.201L54.275,-12.924Z" style="fill:rgb(47,41,43);fill-rule:nonzero;"></path>
    </g>
</svg>
